<!-- colors: #7dffe6 #20e0d2 - #40404c #5b5b6d -->

<svg
  style="background: cornflowerblue; border-radius: 100%"
  viewBox="0 0 600 600"
  xmlns="http://www.w3.org/2000/svg"
  xmlns:svg="http://www.w3.org/2000/svg"
>
  <title>Kawara Logo</title>
  <g>
    <path
      d="m246.36,398.88l-17.5,78.49l72.14,0l32.33,-39.53l-32.33,-57.03l-54.64,18.07z"
      fill="#e0e0e0"
    />
    <path d="m355.64,398.88l17.5,78.49l-72.14,0l0,-96.56l54.64,18.07z" fill="#c0c0c9" />
    <path
      d="m149.17,126.66c-13.98,0 -25.31,11.33 -25.31,25.31l0,199.74c0,13.98 11.33,25.31 25.31,25.31l151.83,0l71.86,-143.89l-71.86,-106.47l-151.83,0z"
      fill="#7dffe6"
    />
    <path
      d="m452.83,126.66l-151.83,0l0,250.36l151.83,0c13.98,0 25.31,-11.33 25.31,-25.31l0,-199.74c0,-13.98 -11.33,-25.31 -25.31,-25.31z"
      fill="#20e0d2"
    />
    <path
      d="m417.2,302.64l0,-17.93l-11.36,-2.41c-0.73,-2.41 -1.7,-4.73 -2.87,-6.92l6.33,-9.74l-12.68,-12.68l-9.74,6.33c-2.19,-1.17 -4.5,-2.14 -6.92,-2.87l-2.41,-11.36l-17.93,0l-2.41,11.36c-2.42,0.73 -4.73,1.7 -6.93,2.87l-9.74,-6.33l-12.67,12.68l6.33,9.74c-1.17,2.19 -2.14,4.51 -2.88,6.92l-11.35,2.41l0,17.93l11.35,2.41c0.74,2.42 1.71,4.73 2.88,6.93l-6.33,9.74l12.67,12.67l9.74,-6.32c2.2,1.17 4.51,2.13 6.93,2.87l2.41,11.36l17.93,0l2.41,-11.36c2.42,-0.74 4.73,-1.7 6.92,-2.87l9.74,6.32l12.68,-12.67l-6.33,-9.74c1.17,-2.2 2.14,-4.51 2.87,-6.93l11.36,-2.41zm-48.62,6.1c-8.31,0 -15.06,-6.74 -15.06,-15.06s6.75,-15.06 15.06,-15.06s15.07,6.74 15.07,15.06c0,8.32 -6.75,15.06 -15.07,15.06z"
      fill="#40404c"
    />
    <path
      d="m297.92,173.05l-14.38,9.34c-3.23,-1.73 -6.65,-3.15 -10.21,-4.24l-3.56,-16.76l-26.46,0l-3.56,16.76c-3.56,1.09 -6.98,2.51 -10.21,4.24l-14.38,-9.34l-18.7,18.7l9.33,14.38c-1.72,3.23 -3.15,6.65 -4.23,10.22l-16.76,3.56l0,26.45l16.76,3.56c1.08,3.57 2.51,6.98 4.23,10.22l-9.33,14.37l18.7,18.71l14.38,-9.34c3.23,1.72 6.65,3.15 10.21,4.24l3.56,16.76l26.46,0l3.56,-16.76c3.56,-1.09 6.98,-2.52 10.21,-4.24l14.38,9.34l3.08,-3.08l6.73,-57.01l-6.73,-57l-3.08,-3.08zm-41.38,82.31c-12.27,0 -22.22,-9.95 -22.22,-22.23s9.95,-22.22 22.22,-22.22c12.28,0 22.23,9.95 22.23,22.22s-9.95,22.23 -22.23,22.23z"
      fill="#5b5b6d"
    />
    <path
      d="m307.29,260.14c1.72,-3.24 3.15,-6.65 4.24,-10.22l16.76,-3.56l0,-26.45l-16.76,-3.56c-1.09,-3.57 -2.52,-6.99 -4.24,-10.22l9.34,-14.38l-15.63,-15.62l0,114.01l15.63,-15.63l-9.34,-14.37z"
      fill="#40404c"
    />
    <path
      d="m149.14,371.32c-9.27,0 -16.82,-7.54 -16.82,-16.81l0,-199.43c0,-9.27 7.55,-16.81 16.82,-16.81l151.86,0l30.82,-11.77l-30.82,-16.92l-161.77,0c-19,0 -34.39,15.4 -34.39,34.39l0,221.65c0,18.99 15.39,34.39 34.39,34.39l161.77,0l34.21,-13.74l-34.21,-14.95l-151.86,0z"
      fill="#fff"
    />
    <path
      d="m462.77,109.58l-161.77,0l0,28.69l151.86,0c9.27,0 16.82,7.54 16.82,16.81l0,199.43c0,9.27 -7.55,16.81 -16.82,16.81l-151.86,0l0,28.69l161.77,0c19,0 34.39,-15.4 34.39,-34.39l0,-221.65c0,-18.99 -15.39,-34.39 -34.39,-34.39z"
      fill="#e0e0e0"
    />
    <path
      d="m376.47,453.37l-75.47,0l0,38.97l98.08,0l0,-16.36c0,-12.48 -10.12,-22.61 -22.61,-22.61z"
      fill="#e0e0e0"
    />
    <path
      d="m202.92,475.98l0,16.36l98.08,0l0,-38.97l-75.47,0c-12.49,0 -22.61,10.13 -22.61,22.61z"
      fill="#fff"
    />
  </g>
</svg>